<svg width="70" height="70" viewBox="0 0 70 70" fill="none" xmlns="http://www.w3.org/2000/svg">
<g id="pin-alt">
<g id="Union" opacity="0.8">
<path d="M35 32.0833C38.2217 32.0833 40.8333 29.4717 40.8333 26.25C40.8333 23.0283 38.2217 20.4167 35 20.4167C31.7783 20.4167 29.1667 23.0283 29.1667 26.25C29.1667 29.4717 31.7783 32.0833 35 32.0833Z" fill="#BB2339"/>
<path fill-rule="evenodd" clip-rule="evenodd" d="M52.5 26.25C52.5 34.9212 46.1933 42.1195 37.9167 43.508V58.3333C37.9167 59.9442 36.6108 61.25 35 61.25C33.3892 61.25 32.0833 59.9442 32.0833 58.3333V43.508C23.8067 42.1195 17.5 34.9212 17.5 26.25C17.5 16.585 25.335 8.75 35 8.75C44.665 8.75 52.5 16.585 52.5 26.25ZM35 37.9167C41.4433 37.9167 46.6667 32.6933 46.6667 26.25C46.6667 19.8067 41.4433 14.5833 35 14.5833C28.5567 14.5833 23.3333 19.8067 23.3333 26.25C23.3333 32.6933 28.5567 37.9167 35 37.9167Z" fill="#BB2339"/>
</g>
</g>
</svg>
