<svg width="93" height="93" viewBox="0 0 93 93" fill="none" xmlns="http://www.w3.org/2000/svg">
<g id="Group 87">
<g id="Group 80">
<path id="Vector" d="M62.286 40.4505C65.1689 37.5398 65.8901 33.5321 63.8938 31.5166C61.8975 29.501 57.9282 30.2292 55.0453 33.1399C52.3184 35.8931 51.527 39.6267 53.1387 41.7285L49.3758 45.5277L48.6143 44.7588L30.6307 62.9157L32.7943 65.1002L50.778 46.9431L50.0165 46.1743L53.7794 42.3751C55.8612 44.0025 59.5592 43.2036 62.286 40.4505ZM49.443 46.9976L32.8484 63.7523L31.966 62.8614L48.5607 46.1067L49.443 46.9976ZM54.1318 41.3727C52.4888 39.7139 53.1861 36.3108 55.6861 33.7867C58.186 31.2627 61.5566 30.5586 63.1996 32.2174C64.8427 33.8763 64.1454 37.2795 61.6455 39.8036C59.1455 42.3276 55.7749 43.0316 54.1318 41.3727Z" fill="#242424"/>
<path id="Vector_2" d="M38.2661 33.1371C35.3872 30.2224 31.4233 29.4933 29.4298 31.5116C27.4362 33.5299 28.1565 37.543 31.0354 40.4577C33.7585 43.2146 37.4513 44.0148 39.5302 42.3853L43.2878 46.1897L42.5273 46.9596L60.4859 65.1415L62.6465 62.954L44.6878 44.7721L43.9274 45.5419L40.1697 41.7375C41.7793 39.6327 40.9892 35.894 38.2661 33.1371ZM44.7417 46.1217L61.3134 62.8994L60.4322 63.7915L43.8606 47.0138L44.7417 46.1217ZM39.1782 41.3812C37.5375 43.0423 34.1716 42.3373 31.6751 39.8098C29.1786 37.2823 28.4823 33.8745 30.123 32.2134C31.7638 30.5522 35.1298 31.2572 37.6262 33.7847C40.1227 36.3122 40.819 39.7201 39.1782 41.3812Z" fill="#242424"/>
</g>
<g id="Group 83">
<path id="D" d="M45.9289 7.72162C45.701 7.72162 45.4446 7.70938 45.1597 7.68491C45.0457 7.67675 44.9074 7.66859 44.7446 7.66043C44.5818 7.65227 44.3986 7.6482 44.1951 7.6482L43.2916 7.66043C43.1451 7.66859 42.9376 7.67267 42.669 7.67267C42.6527 7.67267 42.6445 7.6482 42.6445 7.59925C42.6445 7.5503 42.6527 7.52582 42.669 7.52582C42.9213 7.52582 43.1044 7.50543 43.2184 7.46464C43.3323 7.42385 43.4097 7.34635 43.4504 7.23213C43.4992 7.10976 43.5195 6.92621 43.5114 6.68146V1.01568C43.4951 0.770938 43.4626 0.591461 43.4137 0.477248C43.373 0.363034 43.2957 0.285532 43.1817 0.244742C43.0678 0.195794 42.8969 0.17132 42.669 0.17132C42.6527 0.17132 42.6445 0.146845 42.6445 0.0978971C42.6445 0.0489488 42.6527 0.0244746 42.669 0.0244746L43.2916 0.0367116C43.6498 0.0530275 43.9428 0.0611855 44.1707 0.0611855C44.4393 0.0611855 44.7079 0.0489485 44.9765 0.0244746C45.3184 0.00815821 45.5707 0 45.7335 0C46.5882 0 47.3452 0.159083 48.0045 0.477248C48.6638 0.787255 49.1766 1.22371 49.5429 1.78662C49.9092 2.34953 50.0923 2.99401 50.0923 3.72008C50.0923 4.50326 49.897 5.20077 49.5063 5.81263C49.1237 6.41633 48.615 6.88542 47.9801 7.2199C47.3452 7.55438 46.6614 7.72162 45.9289 7.72162ZM45.819 7.47688C46.3888 7.47688 46.8853 7.34227 47.3085 7.07305C47.7318 6.79568 48.0574 6.39593 48.2853 5.87381C48.5214 5.3517 48.6394 4.72353 48.6394 3.9893C48.6394 3.36113 48.5376 2.76559 48.3341 2.20268C48.1307 1.63162 47.8051 1.16253 47.3574 0.795412C46.9178 0.428299 46.3562 0.244742 45.6725 0.244742C45.3469 0.244742 45.1271 0.305928 45.0132 0.428299C44.8992 0.542512 44.8422 0.746464 44.8422 1.04015V6.54685C44.8504 6.88134 44.9196 7.122 45.0498 7.26884C45.1882 7.40753 45.4446 7.47688 45.819 7.47688Z" fill="#BB2339"/>
<path id="E" d="M60.5738 8.19164C60.594 8.18058 60.6158 8.1785 60.6392 8.18539C60.6626 8.19229 60.6838 8.20701 60.7026 8.22956C60.7238 8.24428 60.7293 8.25441 60.7192 8.25994C60.492 8.74575 60.2901 9.29002 60.1136 9.89275C60.0952 9.95537 60.0697 9.99888 60.0371 10.0233C60.0068 10.0399 59.9565 10.0378 59.8862 10.0172L54.5443 8.44505C54.513 8.43586 54.5043 8.40778 54.518 8.36081C54.5318 8.31385 54.5504 8.29381 54.5738 8.30071C54.8081 8.36966 54.9818 8.3995 55.0948 8.39024C55.2156 8.38328 55.3076 8.32961 55.371 8.22921C55.4421 8.13112 55.5133 7.96074 55.5843 7.71809L57.177 2.28181C57.2458 2.04698 57.2767 1.86903 57.2697 1.74795C57.2628 1.62687 57.2104 1.53067 57.1125 1.45936C57.0169 1.38021 56.8598 1.30846 56.6411 1.24411C56.6177 1.23721 56.609 1.20913 56.6149 1.15987C56.6287 1.11291 56.6434 1.09172 56.659 1.09632L61.7081 2.58223C61.7706 2.60062 61.7915 2.64504 61.7709 2.71548L61.3402 4.27225C61.3334 4.29573 61.3065 4.30058 61.2596 4.28679C61.2206 4.27529 61.1994 4.26057 61.1962 4.24262C61.1919 3.7652 61.0507 3.34953 60.7726 2.99562C60.5046 2.63618 60.1325 2.38636 59.6561 2.24616L59.4335 2.18065C59.1914 2.1094 59.0099 2.07726 58.8891 2.08422C58.7784 2.08565 58.6937 2.12873 58.6349 2.21347C58.5762 2.29821 58.5108 2.44902 58.4387 2.66589L57.737 5.06114L59.2014 5.49209C59.5997 5.60931 59.9132 5.62505 60.1419 5.53931C60.3706 5.45358 60.5309 5.25416 60.6226 4.94105C60.6318 4.90974 60.6637 4.90213 60.7183 4.91822C60.773 4.93431 60.7946 4.96192 60.7832 5.00106L60.5822 5.64339C60.5469 5.73502 60.504 5.86695 60.4536 6.03915C60.3802 6.28964 60.3291 6.47865 60.3002 6.60619L60.1262 7.24367C60.1147 7.28281 60.0855 7.29549 60.0387 7.28169C60.0152 7.2748 59.9929 7.26399 59.9718 7.24927C59.9608 7.22902 59.9576 7.21106 59.9621 7.19541C60.0608 6.85882 60.0298 6.57339 59.8694 6.33913C59.7191 6.09934 59.4565 5.92428 59.0816 5.81395L57.6407 5.3899L56.8633 8.04346C56.7716 8.35657 56.7588 8.57388 56.825 8.69539C56.899 8.8192 57.0922 8.92707 57.4046 9.01901L57.7326 9.11554C58.2403 9.26494 58.7474 9.25688 59.254 9.09137C59.7629 8.91803 60.2028 8.61812 60.5738 8.19164Z" fill="#BB2339"/>
<path id="L" d="M65.1789 12.4745C65.1652 12.4657 65.1716 12.4407 65.198 12.3995C65.2244 12.3583 65.2444 12.3421 65.2581 12.351C65.4704 12.4877 65.6354 12.5698 65.7533 12.5972C65.8712 12.6246 65.9746 12.5991 66.0636 12.5207C66.1595 12.4467 66.2756 12.3033 66.412 12.0905L69.4682 7.32416C69.6003 7.11827 69.68 6.95626 69.7073 6.83812C69.7347 6.71999 69.7115 6.61289 69.6376 6.51682C69.5681 6.4139 69.4375 6.30069 69.2458 6.17719C69.2253 6.16396 69.2282 6.13675 69.2546 6.09557C69.281 6.0544 69.3045 6.04042 69.325 6.05365L69.8114 6.38151C70.1039 6.5893 70.3426 6.75274 70.5275 6.87183C70.7124 6.99091 70.9667 7.14504 71.2905 7.3342L71.8209 7.66131C71.8346 7.67014 71.8283 7.69513 71.8019 7.73631C71.7755 7.77749 71.7554 7.79367 71.7417 7.78485C71.5295 7.64812 71.3622 7.56947 71.2399 7.5489C71.1289 7.52588 71.0255 7.55138 70.9296 7.62541C70.8406 7.70385 70.7245 7.84724 70.5812 8.05558L67.558 12.7705C67.3864 13.0381 67.3096 13.2408 67.3277 13.3786C67.3502 13.5094 67.4676 13.6432 67.6799 13.78L67.9675 13.9652C68.5221 14.3225 69.0636 14.4966 69.5917 14.4877C70.1312 14.4764 70.6833 14.2793 71.2481 13.8964C71.2706 13.8915 71.2921 13.8956 71.3127 13.9089C71.3332 13.9221 71.3494 13.9422 71.3611 13.9691C71.3773 13.9892 71.3809 14.0062 71.3721 14.0199C70.9565 14.5474 70.5925 15.0547 70.28 15.542C70.214 15.645 70.1296 15.6633 70.0269 15.5972L65.1789 12.4745Z" fill="#BB2339"/>
<path id="I" d="M74.82 20.1397C74.8093 20.1274 74.8225 20.1052 74.8594 20.0732C74.8963 20.0411 74.9201 20.0313 74.9307 20.0436C75.096 20.2347 75.2286 20.357 75.3287 20.4104C75.434 20.47 75.5431 20.4779 75.6559 20.4339C75.7687 20.3899 75.9204 20.2851 76.1111 20.1195L80.3833 16.4092C80.5617 16.2543 80.678 16.1209 80.7321 16.0092C80.7978 15.8982 80.8086 15.7862 80.7648 15.6732C80.7271 15.5548 80.6309 15.4062 80.4763 15.2274C80.4657 15.2151 80.4761 15.1898 80.5077 15.1516C80.5446 15.1195 80.5711 15.1127 80.5871 15.1312L80.9776 15.6017C81.1998 15.8836 81.3829 16.1078 81.5268 16.2743C81.6867 16.4593 81.8954 16.6882 82.1529 16.9612L82.5539 17.4063C82.5646 17.4186 82.5515 17.4408 82.5146 17.4729C82.4777 17.5049 82.4539 17.5148 82.4432 17.5025C82.2833 17.3175 82.1476 17.1979 82.0361 17.1436C81.9245 17.0894 81.8124 17.0842 81.6996 17.1282C81.5922 17.1783 81.4404 17.2831 81.2444 17.4426L76.9906 21.1368C76.8061 21.2971 76.684 21.43 76.6246 21.5357C76.5704 21.6474 76.5622 21.7625 76.5999 21.8809C76.6438 21.9939 76.743 22.1398 76.8976 22.3186C76.9083 22.331 76.8951 22.3532 76.8582 22.3852C76.8213 22.4173 76.7975 22.4271 76.7869 22.4148C76.6216 22.2237 76.4915 22.0669 76.3963 21.9444L75.8219 21.2612L75.245 20.6126C75.1376 20.5008 74.9959 20.3432 74.82 20.1397Z" fill="#BB2339"/>
<path id="G" d="M81.7379 31.0428C81.3626 30.219 81.1954 29.4301 81.2366 28.6758C81.281 27.929 81.5082 27.269 81.9182 26.6957C82.3355 26.119 82.8921 25.6714 83.5881 25.3529C84.2619 25.0445 84.9465 24.9464 85.6418 25.0586C86.3447 25.1674 86.9845 25.462 87.5613 25.9423C88.1455 26.4193 88.61 27.0363 88.9549 27.7932C89.1139 28.142 89.2429 28.5134 89.3419 28.9075C89.4484 29.2983 89.5045 29.6179 89.5103 29.8663C89.5078 29.9392 89.495 29.9899 89.4722 30.0183C89.4493 30.0467 89.3989 30.0832 89.3208 30.1279L87.9065 30.8829C87.8769 30.8965 87.8499 30.8864 87.8256 30.8527C87.8013 30.819 87.7969 30.7896 87.8123 30.7646C88.2567 30.2473 88.538 29.706 88.6562 29.1407C88.7818 28.572 88.7179 28.0093 88.4643 27.4528C88.1363 26.7329 87.6255 26.2896 86.9321 26.1227C86.246 25.9524 85.4661 26.0672 84.5924 26.4671C83.8298 26.8162 83.2169 27.2582 82.7537 27.7931C82.2905 28.3279 82.0046 28.8983 81.8958 29.5041C81.7905 30.1173 81.8714 30.7171 82.1385 31.3033C82.2602 31.5705 82.3902 31.7576 82.5285 31.8647C82.6742 31.9684 82.8477 32.0056 83.0491 31.9762C83.2613 31.9509 83.5413 31.8585 83.8893 31.6993C84.2521 31.5332 84.4997 31.3795 84.6322 31.2381C84.7647 31.0968 84.8162 30.9252 84.7869 30.7234C84.7576 30.5216 84.6533 30.224 84.4741 29.8307C84.4538 29.7862 84.4733 29.7504 84.5325 29.7232C84.5547 29.7131 84.5749 29.7083 84.5931 29.709C84.6221 29.7136 84.64 29.7234 84.6467 29.7382C84.8904 30.3711 85.1052 30.8916 85.2911 31.2998C85.467 31.6856 85.6607 32.0813 85.8722 32.4867C85.8858 32.5164 85.8683 32.5468 85.8198 32.5779C85.7714 32.6091 85.7404 32.6098 85.7269 32.5801C85.6802 32.458 85.6168 32.3973 85.5366 32.3982C85.4564 32.399 85.2979 32.4536 85.061 32.5621L84.3057 32.9077C83.9726 33.0602 83.7444 33.1781 83.6213 33.2614C83.4981 33.3447 83.4107 33.3982 83.3588 33.4219C83.3144 33.4422 83.2814 33.4483 83.2598 33.4403C83.2417 33.4396 83.215 33.4204 83.1799 33.3827C82.5398 32.5277 82.0591 31.7477 81.7379 31.0428Z" fill="#BB2339"/>
<path id="H" d="M85.4484 45.1299C85.4507 45.146 85.4277 45.1576 85.3794 45.1645C85.331 45.1715 85.3057 45.1669 85.3034 45.1507C85.2709 44.9246 85.2483 44.7383 85.2355 44.5918L85.1173 43.6816L84.9801 42.8113C84.95 42.659 84.9159 42.4496 84.8777 42.1832C84.8754 42.167 84.8978 42.1514 84.945 42.1364C84.9933 42.1294 85.0192 42.138 85.0227 42.1623C85.0586 42.4126 85.1042 42.5873 85.1596 42.6865C85.2161 42.7938 85.303 42.8554 85.4205 42.8715C85.5379 42.8875 85.7215 42.8775 85.9713 42.8415L88.7508 42.441L88.2504 38.9526L85.4708 39.3531C85.2291 39.388 85.0548 39.4337 84.9478 39.4903C84.8419 39.555 84.7729 39.6474 84.7408 39.7674C84.7167 39.8862 84.7221 40.0668 84.7568 40.3091C84.7603 40.3333 84.7379 40.3489 84.6895 40.3558C84.6412 40.3628 84.6153 40.3542 84.6118 40.33C84.5736 40.0635 84.5481 39.857 84.5353 39.7105L84.4188 38.8124L84.2868 37.9784C84.2567 37.8261 84.2238 37.6248 84.1878 37.3745C84.1844 37.3503 84.2068 37.3347 84.2551 37.3277C84.3035 37.3207 84.3294 37.3294 84.3329 37.3536C84.3676 37.5958 84.4127 37.7666 84.468 37.8657C84.5245 37.973 84.6115 38.0346 84.7289 38.0507C84.8475 38.0748 85.0317 38.0688 85.2814 38.0329L90.8769 37.2265C91.2164 37.1858 91.431 37.1055 91.5207 36.9854C91.6184 36.8642 91.6436 36.638 91.5961 36.3069C91.5926 36.2827 91.615 36.2671 91.6634 36.2601C91.7117 36.2532 91.7376 36.2618 91.7411 36.286L91.8124 36.8692C91.8473 37.2268 91.8803 37.5146 91.9116 37.7327C91.9429 37.9507 91.9932 38.2443 92.0626 38.6134L92.1633 39.2294C92.1656 39.2455 92.1426 39.2571 92.0943 39.2641C92.046 39.271 92.0206 39.2664 92.0183 39.2503C91.9836 39.008 91.9339 38.8339 91.8693 38.7278C91.8048 38.6217 91.7092 38.5572 91.5825 38.5342C91.4651 38.5182 91.285 38.5235 91.0421 38.5503L88.5888 38.9038L89.0875 42.3801L91.5408 42.0266C91.8872 41.9767 92.1093 41.8911 92.2071 41.7699C92.306 41.6567 92.3317 41.4346 92.2842 41.1035C92.2818 41.0874 92.3043 41.0718 92.3515 41.0567C92.3998 41.0498 92.4257 41.0584 92.4292 41.0826L92.5022 41.6779C92.5371 42.0355 92.5707 42.3274 92.6032 42.5535C92.6345 42.7715 92.6836 43.057 92.7507 43.41L92.8514 44.026C92.8549 44.0502 92.8325 44.0658 92.7841 44.0727C92.7358 44.0797 92.7099 44.0711 92.7064 44.0469C92.6716 43.8046 92.622 43.6304 92.5574 43.5244C92.5021 43.4252 92.4151 43.3635 92.2965 43.3394C92.1779 43.3153 91.9966 43.3126 91.7526 43.3313L86.1572 44.1376C85.9235 44.1713 85.7498 44.221 85.6359 44.2869C85.5312 44.3597 85.4633 44.4601 85.4324 44.5882C85.4095 44.7151 85.4148 44.8957 85.4484 45.1299Z" fill="#BB2339"/>
<path id="T" d="M84.9539 50.2976C84.9574 50.2734 84.9833 50.2648 85.0316 50.2717C85.08 50.2787 85.103 50.2903 85.1007 50.3064C85.052 50.6456 85.0368 50.8948 85.0551 51.054C85.0722 51.2213 85.1331 51.3413 85.2378 51.4141C85.3506 51.4881 85.5278 51.5424 85.7695 51.5773L91.3649 52.3836C91.6458 52.4323 91.8363 52.4227 91.9365 52.3547C92.0447 52.2879 92.1151 52.1414 92.1475 51.9153L92.1701 51.7579C92.2095 51.4833 92.1597 51.2 92.0207 50.908C91.8897 50.6171 91.6925 50.358 91.4291 50.1304C91.1738 49.9041 90.8798 49.7463 90.5472 49.6572C90.5311 49.6549 90.5259 49.6335 90.5317 49.5931C90.5352 49.5689 90.5427 49.5453 90.5542 49.5222C90.5727 49.5084 90.5853 49.5061 90.5922 49.5153C90.8926 49.5998 91.6856 49.7759 92.9711 50.0436C92.9953 50.047 93.0045 50.069 92.9987 50.1094C92.9952 50.1336 92.9883 50.1532 92.9779 50.1682C92.9664 50.1912 92.9526 50.2016 92.9364 50.1993C92.7673 50.1749 92.6566 50.3444 92.6045 50.7078C92.4865 51.3584 92.3568 52.1762 92.2155 53.1614C92.1518 53.6055 92.0886 54.1033 92.0259 54.6547L91.9164 55.5044C91.8782 55.7708 91.8705 55.9675 91.8934 56.0945C91.9163 56.2214 91.9859 56.3097 92.1021 56.3594C92.1239 56.3791 92.1279 56.4085 92.1141 56.4477C92.1071 56.4962 92.0881 56.514 92.0571 56.5013C91.706 56.426 91.2624 56.3373 90.726 56.2353C90.1978 56.1345 89.8404 56.0747 89.6539 56.0561C89.6298 56.0526 89.6212 56.0266 89.6281 55.9782C89.6374 55.9136 89.6581 55.8836 89.6903 55.8883C90.0207 55.9359 90.3378 55.9033 90.6418 55.7905C90.9447 55.6858 91.1998 55.5124 91.4072 55.2703C91.6135 55.0362 91.7386 54.7658 91.7826 54.459L91.8052 54.3015C91.8284 54.14 91.8251 54.02 91.7952 53.9415C91.7642 53.8711 91.7015 53.8209 91.6071 53.7908C91.5208 53.7619 91.3695 53.7277 91.1531 53.6883L85.5801 52.8975C85.3303 52.8616 85.1456 52.8597 85.0258 52.8918C84.9049 52.9321 84.8133 53.0261 84.751 53.1737C84.6887 53.3213 84.6327 53.5687 84.5829 53.916C84.5794 53.9402 84.5535 53.9488 84.5051 53.9418C84.4568 53.9349 84.4344 53.9193 84.4378 53.8951C84.4807 53.5963 84.5183 53.3627 84.5507 53.1943L84.7209 52.0938L84.8583 51.0504C84.8757 50.8715 84.9076 50.6206 84.9539 50.2976Z" fill="#BB2339"/>
<path id="I_2" d="M76.4431 71.009C76.4538 70.9967 76.4776 71.0066 76.5145 71.0386C76.5514 71.0707 76.5645 71.0929 76.5539 71.1052C76.3886 71.2963 76.2867 71.4453 76.2482 71.5522C76.2043 71.6652 76.2121 71.7745 76.2716 71.8802C76.3311 71.9858 76.4562 72.1214 76.6469 72.287L80.9191 75.9973C81.0975 76.1523 81.2457 76.2486 81.3638 76.2864C81.4828 76.3357 81.5949 76.3306 81.7003 76.271C81.8118 76.2167 81.9449 76.1002 82.0995 75.9214C82.1101 75.9091 82.1366 75.9158 82.1788 75.9417C82.2157 75.9738 82.2262 75.9991 82.2102 76.0175L81.8012 76.4719C81.5544 76.7325 81.359 76.9461 81.2151 77.1125C81.0551 77.2975 80.8587 77.5371 80.6259 77.8314L80.2433 78.2926C80.2326 78.3049 80.2089 78.2951 80.1719 78.263C80.135 78.231 80.1219 78.2088 80.1326 78.1964C80.2925 78.0115 80.3913 77.8598 80.429 77.7414C80.4667 77.6231 80.4559 77.5111 80.3964 77.4055C80.3316 77.306 80.2065 77.1704 80.0211 76.9986L75.7673 73.3043C75.5828 73.1441 75.4341 73.0419 75.3214 72.998C75.2033 72.9602 75.0884 72.9684 74.9769 73.0227C74.8715 73.0823 74.7415 73.2015 74.587 73.3803C74.5763 73.3926 74.5525 73.3827 74.5156 73.3507C74.4787 73.3186 74.4656 73.2964 74.4762 73.2841C74.6415 73.093 74.7778 72.9415 74.8852 72.8297L75.4781 72.1626L76.0366 71.498C76.1317 71.3755 76.2672 71.2125 76.4431 71.009Z" fill="#BB2339"/>
<path id="N" d="M67.7139 88.0111C67.6934 88.0243 67.6699 88.0103 67.6435 87.9691C67.6171 87.928 67.6142 87.9008 67.6347 87.8875C67.9154 87.7067 68.0832 87.4628 68.138 87.156C68.186 86.8536 68.1078 86.5354 67.9034 86.2016L64.5076 80.883C64.4876 80.8668 64.4937 80.8387 64.526 80.7985C64.547 80.7558 64.5815 80.7191 64.6294 80.6882C64.6979 80.6441 64.7556 80.636 64.8026 80.664L72.5783 83.3068L69.9416 79.1721C69.7372 78.8383 69.4878 78.6304 69.1934 78.5485C68.899 78.4666 68.608 78.5183 68.3204 78.7035C68.293 78.7212 68.2661 78.7094 68.2397 78.6682C68.2133 78.627 68.2138 78.5976 68.2412 78.58C68.4329 78.4565 68.5824 78.3651 68.6895 78.3058L69.3432 77.8993L69.9528 77.492C70.0648 77.4102 70.227 77.3009 70.4393 77.1642C70.4666 77.1465 70.4935 77.1583 70.5199 77.1995C70.5463 77.2407 70.5459 77.2701 70.5185 77.2877C70.2309 77.473 70.0665 77.7146 70.0254 78.0126C69.9774 78.315 70.0556 78.6332 70.26 78.967L73.1475 83.4929C73.4869 83.5846 73.764 83.6244 73.9787 83.6121C74.1865 83.6043 74.3726 83.5475 74.537 83.4416C74.5507 83.4328 74.5707 83.449 74.5971 83.4902C74.6235 83.5314 74.6299 83.5564 74.6162 83.5652L74.0549 83.9121C73.941 83.9758 73.7916 84.0672 73.6067 84.1863C73.4218 84.3054 73.2699 84.4081 73.1511 84.4943C73.0254 84.585 72.942 84.6436 72.9009 84.67C72.8461 84.7053 72.7962 84.7181 72.7512 84.7082C72.6994 84.7028 72.6287 84.6756 72.5392 84.6266C72.3779 84.556 72.2231 84.4957 72.0749 84.4457L65.9086 82.3662L68.2116 86.0031C68.4159 86.337 68.6653 86.5448 68.9597 86.6267C69.2473 86.713 69.5383 86.6614 69.8327 86.4717C69.8601 86.4541 69.887 86.4658 69.9134 86.507C69.9398 86.5482 69.9393 86.5776 69.912 86.5953L69.5048 86.843C69.2221 87.0057 68.9883 87.1466 68.8034 87.2657C68.6596 87.3583 68.462 87.4953 68.2106 87.6766L67.7139 88.0111Z" fill="#BB2339"/>
<path id="E_2" d="M43.4645 87.2973C43.4482 87.3136 43.4279 87.3217 43.4035 87.3217C43.379 87.3217 43.3546 87.3136 43.3302 87.2973C43.3058 87.2891 43.2976 87.2809 43.3058 87.2728C43.3872 86.7425 43.4279 86.1633 43.4279 85.5351C43.4279 85.4699 43.4401 85.4209 43.4645 85.3883C43.4889 85.3638 43.5378 85.3516 43.611 85.3516H49.1785C49.2111 85.3516 49.2274 85.376 49.2274 85.425C49.2274 85.4739 49.2152 85.4984 49.1908 85.4984C48.9466 85.4984 48.7716 85.5188 48.6657 85.5596C48.5518 85.6004 48.4785 85.6779 48.446 85.7921C48.4053 85.9063 48.3849 86.0899 48.3849 86.3428V92.0086C48.3849 92.2533 48.4053 92.4328 48.446 92.547C48.4867 92.6612 48.564 92.7387 48.678 92.7795C48.7919 92.8284 48.9628 92.8529 49.1908 92.8529C49.2152 92.8529 49.2314 92.8774 49.2396 92.9263C49.2396 92.9753 49.2314 92.9998 49.2152 92.9998H43.9529C43.8878 92.9998 43.8552 92.963 43.8552 92.8896L43.8308 91.2743C43.8308 91.2499 43.8552 91.2376 43.9041 91.2376C43.9447 91.2376 43.9692 91.2458 43.9773 91.2621C44.1157 91.7189 44.368 92.0779 44.7343 92.339C45.0924 92.6082 45.5198 92.7428 46.0163 92.7428H46.2483C46.5006 92.7428 46.6837 92.7224 46.7977 92.6816C46.9035 92.649 46.9727 92.5837 47.0053 92.4858C47.0378 92.3879 47.0582 92.2247 47.0663 91.9963V89.4999H45.5401C45.125 89.4999 44.8198 89.5734 44.6244 89.7202C44.4291 89.8671 44.3314 90.1036 44.3314 90.43C44.3314 90.4626 44.3029 90.4789 44.2459 90.4789C44.1889 90.4789 44.1604 90.4585 44.1604 90.4177L44.1727 89.7447C44.1808 89.6468 44.1849 89.5081 44.1849 89.3286C44.1849 89.0676 44.1808 88.8718 44.1727 88.7412L44.1604 88.0804C44.1604 88.0396 44.1849 88.0193 44.2337 88.0193C44.2581 88.0193 44.2825 88.0233 44.307 88.0315C44.3232 88.0478 44.3314 88.0641 44.3314 88.0804C44.3314 88.4312 44.4413 88.6964 44.661 88.8759C44.8727 89.0635 45.1738 89.1573 45.5645 89.1573H47.0663V86.3917C47.0663 86.0654 47.0175 85.8533 46.9198 85.7554C46.814 85.6575 46.5983 85.6085 46.2727 85.6085H45.9308C45.4017 85.6085 44.9174 85.7595 44.4779 86.0613C44.0384 86.3713 43.7006 86.7833 43.4645 87.2973Z" fill="#BB2339"/>
<path id="V" d="M29.141 89.8993C29.1019 89.8878 29.0893 89.8586 29.103 89.8116C29.1168 89.7647 29.1432 89.7469 29.1822 89.7584C29.4712 89.8435 29.7491 89.836 30.016 89.7359C30.275 89.6336 30.5727 89.3556 30.9092 88.902L34.8722 83.6276C34.9071 83.5954 34.9714 83.5931 35.0651 83.6206C35.1041 83.6321 35.1409 83.6514 35.1754 83.6786C35.2121 83.6979 35.2321 83.7166 35.2353 83.7345L36.2914 90.9451C36.3403 91.2995 36.4139 91.555 36.5122 91.7115C36.6083 91.8758 36.7657 91.9902 36.9844 92.0545C37.0078 92.0614 37.0126 92.0883 36.9989 92.1353C36.9851 92.1823 36.9704 92.2035 36.9548 92.1989L36.3374 92.0044C36.0608 91.906 35.8561 91.8373 35.7233 91.7982C35.4266 91.7109 35.0884 91.6198 34.709 91.5252L34.1315 91.368C34.0925 91.3565 34.0798 91.3273 34.0936 91.2803C34.1073 91.2333 34.1337 91.2156 34.1728 91.2271C34.6101 91.3558 34.8644 91.2988 34.9355 91.0562C34.9607 90.9701 34.9638 90.8435 34.9449 90.6764L34.1632 85.179L31.3089 89.0579C31.196 89.2117 31.1212 89.3512 31.0845 89.4765C31.0134 89.7191 31.0482 89.9334 31.1888 90.1194C31.3272 90.3131 31.5448 90.4537 31.8415 90.541C31.8728 90.5502 31.8815 90.5783 31.8677 90.6253C31.854 90.6722 31.8315 90.6911 31.8003 90.6819L31.2062 90.4943C30.8672 90.3776 30.5571 90.2778 30.2759 90.1951C30.1197 90.1491 29.9222 90.0995 29.6833 90.0462L29.141 89.8993Z" fill="#BB2339"/>
<path id="E_3" d="M21.9238 79.262C21.9013 79.2669 21.8798 79.2627 21.8593 79.2495C21.8387 79.2362 21.8226 79.2161 21.8108 79.1892C21.7947 79.1691 21.7922 79.1578 21.8035 79.1554C22.158 78.7534 22.5047 78.2882 22.8435 77.7597C22.8787 77.7048 22.9154 77.6702 22.9536 77.656C22.9873 77.6487 23.035 77.6648 23.0966 77.7045L27.7803 80.7214C27.8077 80.739 27.8082 80.7684 27.7818 80.8096C27.7554 80.8508 27.7319 80.8648 27.7114 80.8515C27.5059 80.7192 27.3477 80.6415 27.2367 80.6185C27.1188 80.5911 27.0154 80.6166 26.9264 80.695C26.8306 80.7691 26.7144 80.9124 26.578 81.1252L23.5218 85.8916C23.3898 86.0974 23.3101 86.2595 23.2827 86.3776C23.2553 86.4957 23.2786 86.6028 23.3524 86.6989C23.4219 86.8018 23.5525 86.915 23.7442 87.0385C23.7648 87.0518 23.7652 87.0812 23.7457 87.1268C23.7193 87.1679 23.6992 87.1841 23.6855 87.1753L19.2586 84.3238C19.2038 84.2886 19.1963 84.24 19.2359 84.1783L20.0866 82.8062C20.0998 82.7856 20.127 82.7885 20.1681 82.815C20.2023 82.837 20.2185 82.8571 20.2165 82.8753C20.0865 83.3346 20.1051 83.7733 20.2724 84.1914C20.4285 84.6119 20.7154 84.9567 21.1331 85.2257L21.3282 85.3514C21.5405 85.4882 21.7056 85.5703 21.8235 85.5977C21.9301 85.6276 22.0235 85.6102 22.1037 85.5454C22.1839 85.4807 22.289 85.3545 22.4191 85.1667L23.7657 83.0667L22.4818 82.2397C22.1325 82.0147 21.8361 81.9111 21.5926 81.9288C21.349 81.9465 21.1393 82.0926 20.9632 82.3671C20.9456 82.3945 20.9129 82.3928 20.8649 82.362C20.817 82.3311 20.804 82.2985 20.826 82.2642L21.1994 81.7046C21.259 81.6266 21.3372 81.5122 21.4341 81.3612C21.5749 81.1416 21.6771 80.9747 21.7406 80.8604L22.0868 80.2979C22.1088 80.2636 22.1404 80.2597 22.1814 80.2861C22.202 80.2994 22.2203 80.316 22.2365 80.3361C22.2414 80.3587 22.2394 80.3768 22.2306 80.3905C22.0414 80.6857 21.9908 80.9682 22.0789 81.2383C22.1557 81.5108 22.3584 81.753 22.6871 81.9647L23.9505 82.7784L25.4423 80.4519C25.6183 80.1773 25.6917 79.9724 25.6623 79.8372C25.6261 79.6975 25.471 79.5394 25.1971 79.363L24.9095 79.1777C24.4644 78.891 23.9756 78.7556 23.443 78.7713C22.906 78.794 22.3996 78.9575 21.9238 79.262Z" fill="#BB2339"/>
<path id="R" d="M14.0876 68.7337C14.0716 68.7152 14.0821 68.6899 14.119 68.6579C14.1506 68.6197 14.177 68.6129 14.1983 68.6376L15.5096 70.1543C15.6375 70.3022 15.6153 70.7749 15.443 71.5722C15.2592 72.3687 14.8929 73.4586 14.3441 74.842C14.5365 74.9772 14.7232 75.1497 14.9045 75.3593C14.9311 75.3901 14.9596 75.4355 14.9899 75.4955L17.1768 73.5963C17.3605 73.4476 17.4852 73.3177 17.5508 73.2067C17.605 73.0949 17.6132 72.9799 17.5755 72.8615C17.5263 72.7423 17.4217 72.5902 17.2618 72.4053C17.2405 72.3806 17.2483 72.3522 17.2852 72.3202C17.3168 72.282 17.3432 72.2752 17.3645 72.2998C17.5458 72.5095 17.6813 72.6724 17.7711 72.7888L18.3535 73.4811L18.9624 74.1667C19.0752 74.2847 19.2222 74.4485 19.4034 74.6581C19.4247 74.6828 19.4196 74.7142 19.388 74.7525C19.3511 74.7845 19.322 74.7882 19.3007 74.7635C19.1248 74.5601 18.9788 74.4224 18.8627 74.3504C18.7406 74.2839 18.6231 74.2725 18.5103 74.3165C18.386 74.3597 18.2321 74.4556 18.0483 74.6044L13.7761 78.3147C13.5915 78.4749 13.4722 78.611 13.4181 78.7228C13.3586 78.8284 13.3535 78.9408 13.4027 79.06C13.4457 79.1845 13.5498 79.3423 13.7151 79.5335C13.7364 79.5581 13.7286 79.5865 13.6917 79.6186C13.6548 79.6506 13.6257 79.6543 13.6044 79.6296L13.1898 79.1315C12.9676 78.8495 12.7818 78.6222 12.6326 78.4496C12.4514 78.2399 12.2418 78.0225 12.004 77.7973C11.8211 77.6107 11.7031 77.4865 11.6498 77.4249C11.1114 76.8022 10.8105 76.2485 10.7469 75.7639C10.6781 75.2732 10.8251 74.8702 11.1881 74.555C11.4526 74.3253 11.7852 74.193 12.1858 74.1581C12.5811 74.117 12.9871 74.1693 13.4037 74.3148C13.7815 73.1447 14.0541 72.1956 14.2214 71.4673C14.3773 70.7382 14.4475 70.1591 14.432 69.73C14.4049 69.3001 14.2902 68.968 14.0876 68.7337ZM14.7316 75.7199C14.6861 75.6299 14.618 75.5325 14.5274 75.4277C14.1756 75.0208 13.8385 74.8115 13.5162 74.8C13.1886 74.7823 12.8156 74.9551 12.3973 75.3184C11.9605 75.6977 11.7153 76.0618 11.6615 76.4107C11.5963 76.7588 11.6703 77.0562 11.8835 77.3028C12.0274 77.4693 12.1383 77.5727 12.2162 77.6129C12.288 77.6586 12.3745 77.659 12.4758 77.6142C12.5656 77.5686 12.7147 77.4607 12.923 77.2906L14.7316 75.7199Z" fill="#BB2339"/>
<path id="Y" d="M2.68863 62.6021C2.67172 62.565 2.68548 62.5363 2.72991 62.516C2.77433 62.4957 2.805 62.504 2.8219 62.5411C2.94025 62.8009 3.15348 63.0037 3.46159 63.1497C3.75892 63.2916 4.16731 63.3827 4.68676 63.423L7.30412 63.5702L9.89185 62.3858C10.1214 62.2807 10.2795 62.1859 10.3663 62.1014C10.4496 62.0094 10.4828 61.8956 10.4657 61.7599C10.4486 61.6242 10.3792 61.4228 10.2575 61.1557C10.244 61.126 10.2594 61.101 10.3038 61.0806C10.3483 61.0603 10.3772 61.065 10.3908 61.0947C10.5091 61.3544 10.5967 61.5564 10.6535 61.7008L11.0431 62.5853L11.4752 63.5041C11.5502 63.6491 11.6452 63.8478 11.7602 64.1001C11.7737 64.1298 11.7583 64.1548 11.7138 64.1751C11.6694 64.1955 11.6404 64.1908 11.6269 64.1611C11.5052 63.894 11.3971 63.7058 11.3026 63.5966C11.2007 63.4907 11.0877 63.4393 10.9638 63.4422C10.8365 63.4377 10.6634 63.49 10.4447 63.5991L8.01753 64.7235L6.13629 67.7236C5.94349 68.0271 5.82136 68.2893 5.76988 68.5101C5.71501 68.7236 5.72478 68.9119 5.79917 69.0752C5.81269 69.1049 5.79724 69.1299 5.75282 69.1502C5.71178 69.178 5.68618 69.1807 5.67604 69.1585L5.4234 68.5746C5.30972 68.2858 5.22244 68.0746 5.16158 67.941C5.07705 67.7555 4.94284 67.4806 4.75897 67.1164L4.48919 66.5537C4.47905 66.5315 4.48878 66.5136 4.5184 66.5C4.54061 66.4899 4.5662 66.4871 4.59518 66.4918C4.61337 66.4924 4.62584 66.5002 4.63261 66.515C4.72052 66.708 4.79958 66.8422 4.86977 66.9177C4.93658 66.9857 5.0033 67.0045 5.06994 66.974C5.13658 66.9435 5.20482 66.8674 5.27466 66.7458L7.06827 63.9069L4.55908 63.7908C4.38057 63.7918 4.23208 63.8194 4.11361 63.8737C3.94332 63.9516 3.83339 64.0737 3.78384 64.2398C3.7309 64.3986 3.75346 64.5856 3.85152 64.8008C3.86505 64.8305 3.8496 64.8555 3.80517 64.8758C3.76075 64.8962 3.73346 64.8952 3.72332 64.8729L3.46054 64.2668C3.30628 63.8889 3.1835 63.5998 3.09221 63.3995C3.03472 63.2733 2.96138 63.132 2.87219 62.9755L2.68863 62.6021Z" fill="#BB2339"/>
<path id="B" d="M3.87614 39.5604C4.05517 38.8856 4.35953 38.369 4.78922 38.0106C5.21086 37.651 5.69561 37.5107 6.24347 37.5897C6.66242 37.6501 7.02314 37.8298 7.32561 38.1289C7.62809 38.428 7.84876 38.81 7.98762 39.2751C8.11843 39.739 8.14503 40.2415 8.06742 40.7825C8.03499 41.0086 7.98583 41.2653 7.91996 41.5525C7.89569 41.6644 7.86736 41.8046 7.83497 41.973C7.80375 42.1333 7.77366 42.3144 7.7447 42.5163L7.63168 43.3901C7.61772 43.5447 7.59105 43.7593 7.55167 44.0338C7.54935 44.05 7.52402 44.0546 7.47568 44.0476C7.42734 44.0407 7.40433 44.0291 7.40665 44.013C7.44024 43.7788 7.445 43.6023 7.42094 43.4834C7.38997 43.3553 7.32157 43.2589 7.21572 43.1942C7.10988 43.1295 6.9361 43.0797 6.6944 43.0449L1.09895 42.2386C0.865306 42.2049 0.68861 42.2042 0.568864 42.2364C0.44222 42.2593 0.350068 42.3285 0.292408 42.4438C0.22785 42.5499 0.178774 42.72 0.145181 42.9542C0.142864 42.9703 0.117535 42.9749 0.0691947 42.968C0.0208541 42.961 -0.00215785 42.9494 0.000158935 42.9333L0.104336 42.2931C0.171419 41.9401 0.220598 41.6546 0.251875 41.4366C0.28431 41.2105 0.305818 40.9745 0.3164 40.7288C0.319927 40.6469 0.329246 40.5246 0.344357 40.3619C0.359468 40.1993 0.375712 40.0574 0.393088 39.9363C0.501976 39.1772 0.718897 38.6109 1.04385 38.2374C1.36996 37.8558 1.7868 37.7016 2.29438 37.7747C2.68111 37.8305 3.01305 38.0102 3.29019 38.3139C3.56734 38.6175 3.76265 39.0331 3.87614 39.5604ZM0.608727 40.1528C0.575134 40.387 0.608364 40.5566 0.708417 40.6617C0.808469 40.7667 1.01157 40.8413 1.31773 40.8855L3.61392 41.2163L3.69725 40.7215C3.7598 40.2854 3.65077 39.9277 3.37014 39.6482C3.08262 39.3595 2.69716 39.1803 2.21375 39.1107C1.75451 39.0445 1.38841 39.103 1.11543 39.2862C0.835546 39.4602 0.666647 39.749 0.608727 40.1528ZM7.77201 40.9501C7.85425 40.3768 7.7735 39.9366 7.52973 39.6295C7.28597 39.3224 6.88613 39.1288 6.33021 39.0486C5.70984 38.9592 5.19637 39.0419 4.78979 39.2965C4.38322 39.5511 4.13417 39.9973 4.04266 40.6353C4.00907 40.8694 3.98701 41.0805 3.97648 41.2686L6.88901 41.6883C7.171 41.7289 7.37592 41.7049 7.50377 41.6162C7.63163 41.5275 7.72104 41.3054 7.77201 40.9501Z" fill="#BB2339"/>
<path id="I_3" d="M10.5809 31.5069C10.5741 31.5217 10.5485 31.519 10.5041 31.4987C10.4597 31.4783 10.4408 31.4607 10.4476 31.4459C10.5524 31.2158 10.6083 31.0441 10.6152 30.9307C10.6256 30.8099 10.5873 30.7072 10.5006 30.6226C10.4138 30.5381 10.2557 30.4433 10.0262 30.3382L4.88404 27.9846C4.66932 27.8863 4.49999 27.8357 4.37604 27.8328C4.24808 27.819 4.14191 27.8556 4.05755 27.9426C3.96579 28.0261 3.87088 28.1755 3.77282 28.3907C3.76606 28.4056 3.73877 28.4065 3.69097 28.3936C3.64654 28.3733 3.6294 28.352 3.63955 28.3297L3.90425 27.7782C4.06784 27.4585 4.19528 27.1984 4.28658 26.9981C4.38802 26.7755 4.5091 26.4901 4.64984 26.1419L4.88726 25.5914C4.89402 25.5766 4.91961 25.5793 4.96404 25.5997C5.00846 25.62 5.02729 25.6376 5.02053 25.6524C4.91909 25.8751 4.86691 26.0485 4.864 26.1727C4.86109 26.2969 4.90301 26.4013 4.98976 26.4859C5.07989 26.563 5.23803 26.6578 5.46417 26.7703L10.5841 29.1138C10.8062 29.2154 10.9776 29.2714 11.0981 29.2818C11.2221 29.2847 11.3299 29.2444 11.4217 29.1608C11.506 29.0739 11.5973 28.9228 11.6953 28.7076C11.7021 28.6928 11.7277 28.6955 11.7721 28.7158C11.8165 28.7362 11.8353 28.7538 11.8286 28.7686C11.7238 28.9986 11.6355 29.1825 11.5639 29.3201L11.1825 30.1276L10.8335 30.923C10.7767 31.0674 10.6925 31.262 10.5809 31.5069Z" fill="#BB2339"/>
<path id="T_2" d="M15.9085 22.4077C15.8925 22.4262 15.8661 22.4194 15.8292 22.3874C15.7922 22.3553 15.7791 22.3331 15.7898 22.3208C16.0137 22.0618 16.1608 21.8604 16.2314 21.7166C16.3072 21.5666 16.3207 21.4326 16.2719 21.3146C16.217 21.1913 16.0972 21.0495 15.9127 20.8893L11.6404 17.179C11.4305 16.9858 11.265 16.8907 11.144 16.8936C11.0169 16.8911 10.8787 16.9762 10.7295 17.1488L10.6255 17.2691C10.4443 17.4787 10.3334 17.744 10.2928 18.065C10.2461 18.3806 10.2722 18.7055 10.371 19.0397C10.4637 19.3685 10.6259 19.6605 10.8577 19.9157C10.87 19.9264 10.8628 19.9471 10.8361 19.9779C10.8201 19.9964 10.8011 20.0123 10.7789 20.0254C10.756 20.0271 10.7441 20.0221 10.7433 20.0106C10.5361 19.7768 9.96404 19.199 9.02695 18.2772C9.0085 18.2612 9.01259 18.2377 9.03925 18.2069C9.05524 18.1884 9.07164 18.1757 9.08845 18.1687C9.11059 18.1555 9.12782 18.1543 9.14012 18.165C9.2693 18.2772 9.45383 18.1945 9.69369 17.9171C10.1439 17.4337 10.6942 16.8159 11.3445 16.0638C11.6376 15.7247 11.9593 15.3401 12.3095 14.9102L12.8599 14.2548C13.0358 14.0513 13.1484 13.89 13.1976 13.7708C13.2468 13.6516 13.2359 13.5396 13.1649 13.4348C13.1571 13.4065 13.1696 13.3796 13.2024 13.3541C13.2344 13.3171 13.26 13.3124 13.2793 13.3399C13.534 13.5935 13.8594 13.9085 14.2556 14.2849C14.6456 14.656 14.914 14.8999 15.0608 15.0166C15.0793 15.0326 15.0725 15.0591 15.0405 15.0961C14.9979 15.1455 14.9643 15.1594 14.9397 15.1381C14.6874 14.919 14.403 14.7746 14.0865 14.7047C13.7752 14.6287 13.4671 14.6364 13.162 14.7276C12.8622 14.8127 12.6111 14.9724 12.4085 15.2067L12.3046 15.3269C12.198 15.4503 12.1361 15.553 12.1188 15.6352C12.107 15.7113 12.1326 15.7875 12.1957 15.8639C12.2528 15.935 12.3616 16.0458 12.5224 16.1962L16.7842 19.8812C16.9749 20.0468 17.1293 20.1485 17.2474 20.1863C17.3708 20.218 17.4985 20.1886 17.6306 20.0981C17.7626 20.0077 17.9432 19.8299 18.1724 19.5648C18.1884 19.5463 18.2149 19.5531 18.2518 19.5852C18.2887 19.6172 18.2992 19.6425 18.2832 19.661C18.0859 19.8891 17.9283 20.0652 17.8102 20.1894L17.0734 21.0229L16.395 21.8263C16.2839 21.9673 16.1217 22.1611 15.9085 22.4077Z" fill="#BB2339"/>
<path id="E_4" d="M26.7685 10.6417C26.7734 10.6191 26.7861 10.6013 26.8066 10.588C26.8272 10.5748 26.8521 10.5684 26.8815 10.5689C26.9064 10.5626 26.9176 10.565 26.9152 10.5763C27.1328 11.0665 27.411 11.5758 27.7498 12.1043C27.785 12.1592 27.8012 12.207 27.7982 12.2476C27.7909 12.2815 27.7564 12.3182 27.6948 12.3579L23.0111 15.3748C22.9837 15.3924 22.9568 15.3806 22.9304 15.3395C22.904 15.2983 22.901 15.2711 22.9216 15.2578C23.127 15.1255 23.2632 15.0135 23.3302 14.9219C23.4041 14.8258 23.4239 14.7209 23.3897 14.6072C23.3623 14.4891 23.2804 14.3236 23.144 14.1109L20.0878 9.34451C19.9558 9.13862 19.8418 8.99866 19.746 8.92463C19.6501 8.8506 19.5433 8.8273 19.4254 8.85473C19.3032 8.8753 19.1462 8.94734 18.9544 9.07083C18.9339 9.08407 18.907 9.0723 18.8737 9.03553C18.8473 8.99435 18.841 8.96935 18.8547 8.96053L23.2816 6.10909C23.3364 6.0738 23.3836 6.08704 23.4232 6.14881L24.315 7.49445C24.3282 7.51504 24.3143 7.53857 24.2732 7.56503C24.239 7.58709 24.214 7.59345 24.1984 7.58414C23.8355 7.27479 23.4296 7.10955 22.9807 7.08841C22.5342 7.05599 22.1021 7.17431 21.6844 7.44335L21.4892 7.56906C21.2769 7.70578 21.1339 7.82218 21.06 7.91824C20.9886 8.00303 20.9656 8.09543 20.991 8.19543C21.0164 8.29542 21.0873 8.44371 21.2037 8.64029L22.5503 10.7404L23.8342 9.91338C24.1834 9.68844 24.4006 9.46128 24.4857 9.23189C24.5708 9.0025 24.5254 8.75055 24.3494 8.47603C24.3318 8.44857 24.3469 8.41941 24.3949 8.38854C24.4428 8.35766 24.4778 8.35938 24.4998 8.3937L24.8526 8.96651C24.8985 9.05328 24.9699 9.17216 25.0667 9.32314C25.2075 9.54276 25.3166 9.70527 25.3938 9.81066L25.7606 10.36C25.7826 10.3943 25.773 10.4247 25.7319 10.4511C25.7114 10.4644 25.6886 10.4742 25.6637 10.4805C25.6412 10.4756 25.6256 10.4663 25.6168 10.4526C25.4275 10.1575 25.1921 9.99396 24.9104 9.96206C24.6311 9.91888 24.3272 10.0032 23.9985 10.2149L22.7351 11.0286L24.2269 13.3552C24.4029 13.6297 24.5584 13.7817 24.6934 13.8111C24.8352 13.8361 25.0431 13.7604 25.317 13.584L25.6046 13.3987C26.0497 13.1121 26.3757 12.7227 26.5827 12.2306C26.7852 11.7316 26.8471 11.202 26.7685 10.6417Z" fill="#BB2339"/>
</g>
</g>
</svg>
